<svg width="22" height="22" viewBox="0 0 22 22" fill="none" xmlns="http://www.w3.org/2000/svg">
<g clip-path="url(#clip0_73_472)">
<path d="M6.45605 12.375L9.625 21.8926V22H8.21777L7.29395 19.25H3.70605L2.78223 22H1.375V21.8926L4.54395 12.375H6.45605ZM6.84277 17.875L5.5 13.8574L4.15723 17.875H6.84277ZM9.59277 5.5C9.61426 5.96549 9.625 6.42383 9.625 6.875V7.5625C9.625 7.79167 9.61784 8.02083 9.60352 8.25H8.25V9.625H5.61816L5.72559 10.3125C5.76139 10.5417 5.81152 10.7708 5.87598 11H4.49023C4.43294 10.7708 4.38997 10.5417 4.36133 10.3125C4.33268 10.0833 4.30046 9.85417 4.26465 9.625H2.01953C2.16276 9.88281 2.32747 10.1263 2.51367 10.3555C2.69987 10.5846 2.90397 10.7995 3.12598 11H2.75L2.2666 11.9668C1.54329 11.3151 0.984701 10.5488 0.59082 9.66797C0.19694 8.78711 0 7.85612 0 6.875C0 6.24479 0.0823568 5.63607 0.24707 5.04883C0.411784 4.46159 0.640951 3.91374 0.93457 3.40527C1.22819 2.89681 1.58626 2.4349 2.00879 2.01953C2.43132 1.60417 2.89681 1.24609 3.40527 0.945312C3.91374 0.644531 4.46159 0.411784 5.04883 0.24707C5.63607 0.0823568 6.24479 0 6.875 0C7.50521 0 8.11393 0.0823568 8.70117 0.24707C9.28841 0.411784 9.83626 0.640951 10.3447 0.93457C10.8532 1.22819 11.3151 1.58626 11.7305 2.00879C12.1458 2.43132 12.5039 2.89681 12.8047 3.40527C13.1055 3.91374 13.3382 4.46159 13.5029 5.04883C13.6676 5.63607 13.75 6.24479 13.75 6.875C13.75 7.10417 13.7393 7.33333 13.7178 7.5625C13.6963 7.79167 13.6605 8.02083 13.6104 8.25H12.2783C12.4001 7.78451 12.4609 7.32617 12.4609 6.875C12.4609 6.42383 12.4001 5.96549 12.2783 5.5H9.59277ZM6.875 1.28906C6.73893 1.28906 6.61719 1.34635 6.50977 1.46094C6.40234 1.57552 6.30208 1.72233 6.20898 1.90137C6.11589 2.0804 6.03711 2.28092 5.97266 2.50293C5.9082 2.72493 5.85449 2.93978 5.81152 3.14746C5.76855 3.35514 5.72917 3.5485 5.69336 3.72754C5.65755 3.90658 5.63607 4.03906 5.62891 4.125H8.11035C8.09603 4.04622 8.07454 3.9209 8.0459 3.74902C8.01725 3.57715 7.98145 3.38379 7.93848 3.16895C7.89551 2.9541 7.83822 2.73926 7.7666 2.52441C7.69499 2.30957 7.61621 2.10905 7.53027 1.92285C7.44434 1.73665 7.34408 1.58626 7.22949 1.47168C7.11491 1.3571 6.99674 1.29622 6.875 1.28906ZM4.15723 8.25C4.13574 7.79167 4.125 7.33333 4.125 6.875C4.125 6.42383 4.13574 5.96549 4.15723 5.5H1.47168C1.34993 5.96549 1.28906 6.42383 1.28906 6.875C1.28906 7.32617 1.34993 7.78451 1.47168 8.25H4.15723ZM4.27539 4.125C4.31836 3.70964 4.38281 3.29427 4.46875 2.87891C4.55469 2.46354 4.67643 2.0625 4.83398 1.67578C4.23958 1.91211 3.70247 2.23796 3.22266 2.65332C2.74284 3.06868 2.3418 3.55924 2.01953 4.125H4.27539ZM8.23926 8.25C8.26074 7.79167 8.27148 7.33333 8.27148 6.875C8.27148 6.42383 8.26074 5.96549 8.23926 5.5H5.51074C5.48926 5.96549 5.47852 6.42383 5.47852 6.875C5.47852 7.33333 5.48926 7.79167 5.51074 8.25H8.23926ZM8.8623 1.66504C9.02702 2.05176 9.15592 2.4528 9.24902 2.86816C9.34212 3.28353 9.41374 3.70247 9.46387 4.125H11.7305C11.4082 3.56641 11.0036 3.07585 10.5166 2.65332C10.0296 2.23079 9.47819 1.90137 8.8623 1.66504ZM14.9424 9.5498C14.9424 9.33496 14.9388 9.11654 14.9316 8.89453C14.9245 8.67253 14.8958 8.45768 14.8457 8.25C15.3398 8.25 15.8304 8.27148 16.3174 8.31445C16.3604 8.32161 16.4033 8.33236 16.4463 8.34668C16.4893 8.361 16.5143 8.39681 16.5215 8.4541C16.5215 8.48991 16.5107 8.53288 16.4893 8.58301C16.4678 8.63314 16.4499 8.67611 16.4355 8.71191C16.4212 8.75488 16.4105 8.81217 16.4033 8.88379C16.3962 8.9554 16.389 9.0306 16.3818 9.10938C16.3747 9.18815 16.3711 9.26693 16.3711 9.3457C16.3711 9.42448 16.3711 9.48535 16.3711 9.52832V9.66797H19.5508C19.8516 9.66797 20.1488 9.66439 20.4424 9.65723C20.736 9.65007 21.0368 9.6429 21.3447 9.63574C21.3949 9.63574 21.4414 9.64648 21.4844 9.66797C21.5059 9.70378 21.5166 9.73958 21.5166 9.77539C21.5094 9.89714 21.5023 10.0225 21.4951 10.1514C21.488 10.2803 21.4844 10.4092 21.4844 10.5381V11.1611C21.4844 11.4189 21.488 11.6768 21.4951 11.9346C21.5023 12.1924 21.5094 12.4538 21.5166 12.7188V12.7939C21.5166 12.8226 21.5059 12.8441 21.4844 12.8584C21.4271 12.8727 21.3805 12.8799 21.3447 12.8799H21.0762C20.9329 12.8799 20.7861 12.8835 20.6357 12.8906C20.4997 12.8906 20.3779 12.887 20.2705 12.8799C20.1631 12.8727 20.1022 12.862 20.0879 12.8477C20.0736 12.7904 20.0664 12.7044 20.0664 12.5898C20.0664 12.4753 20.0628 12.3464 20.0557 12.2031C20.0557 11.9668 20.0592 11.7233 20.0664 11.4727C20.0736 11.222 20.0771 11.0358 20.0771 10.9141H11.4619V11.333C11.4619 11.4404 11.4655 11.5514 11.4727 11.666C11.4798 11.7806 11.4798 11.9023 11.4727 12.0312C11.4727 12.2389 11.4691 12.4251 11.4619 12.5898C11.4548 12.7546 11.444 12.8477 11.4297 12.8691C11.3724 12.8835 11.3258 12.8906 11.29 12.8906H10.1943C10.1156 12.8906 10.069 12.8799 10.0547 12.8584C10.0404 12.8369 10.0332 12.7904 10.0332 12.7188C10.0404 12.4323 10.0439 12.1494 10.0439 11.8701C10.0439 11.5908 10.0439 11.3079 10.0439 11.0215V10.3984C10.0439 10.1908 10.0404 9.98307 10.0332 9.77539C10.0332 9.73958 10.0404 9.7002 10.0547 9.65723C10.112 9.6429 10.1585 9.63574 10.1943 9.63574C10.4951 9.6429 10.7923 9.65007 11.0859 9.65723C11.3796 9.66439 11.6803 9.66797 11.9883 9.66797H14.9424V9.5498ZM21.8066 15.4902C21.821 15.5475 21.8281 15.5941 21.8281 15.6299V16.6611C21.8281 16.6898 21.821 16.7327 21.8066 16.79C21.7493 16.8044 21.7028 16.8115 21.667 16.8115C21.3805 16.8044 21.0977 16.7972 20.8184 16.79C20.5391 16.7829 20.2562 16.7793 19.9697 16.7793H16.5215V17.1338C16.5215 17.5062 16.5251 17.8786 16.5322 18.251C16.5394 18.6234 16.5501 18.9958 16.5645 19.3682V19.4111C16.5645 19.583 16.5322 19.7549 16.4678 19.9268C16.4033 20.0986 16.2995 20.2347 16.1562 20.335C16.056 20.4066 15.9163 20.4603 15.7373 20.4961C15.5583 20.5319 15.3613 20.5605 15.1465 20.582C14.9316 20.6035 14.7311 20.6143 14.5449 20.6143C14.3587 20.6143 14.2012 20.6178 14.0723 20.625H13.8682C13.7751 20.625 13.7106 20.6035 13.6748 20.5605C13.6533 20.5391 13.6283 20.4818 13.5996 20.3887C13.571 20.2956 13.5495 20.2311 13.5352 20.1953C13.485 20.0091 13.4277 19.8372 13.3633 19.6797C13.2988 19.5221 13.2129 19.3574 13.1055 19.1855C13.349 19.2142 13.5924 19.2321 13.8359 19.2393C14.0794 19.2464 14.3229 19.2536 14.5664 19.2607C14.7383 19.2607 14.8672 19.2357 14.9531 19.1855C15.0391 19.1354 15.0856 19.0137 15.0928 18.8203V16.7793H11.666C11.3796 16.7793 11.0931 16.7829 10.8066 16.79C10.5202 16.7972 10.2337 16.8044 9.94727 16.8115C9.88997 16.8115 9.84701 16.8008 9.81836 16.7793C9.80404 16.7363 9.79688 16.6969 9.79688 16.6611V15.5547C9.79688 15.526 9.80762 15.501 9.8291 15.4795C9.87207 15.4652 9.91146 15.458 9.94727 15.458L10.8066 15.4795C11.0931 15.4867 11.3796 15.4902 11.666 15.4902H15.0928C15.0785 15.304 15.0713 15.1178 15.0713 14.9316C15.0713 14.7454 15.0498 14.5557 15.0068 14.3623C15.1501 14.3766 15.2897 14.3874 15.4258 14.3945C15.5618 14.4017 15.7051 14.416 15.8555 14.4375H15.8877C15.8949 14.4375 15.9092 14.4411 15.9307 14.4482C16.1813 14.2692 16.4212 14.0794 16.6504 13.8789C16.8796 13.6784 17.1087 13.4743 17.3379 13.2666H14.0293C13.7285 13.2666 13.4313 13.2702 13.1377 13.2773C12.8441 13.2845 12.5433 13.2917 12.2354 13.2988C12.1781 13.2988 12.1351 13.2881 12.1064 13.2666C12.0921 13.2236 12.085 13.1842 12.085 13.1484V12.1279C12.085 12.0993 12.0921 12.0563 12.1064 11.999C12.1637 11.9847 12.2067 11.9775 12.2354 11.9775C12.5361 11.9847 12.8333 11.9919 13.127 11.999C13.4206 12.0062 13.7214 12.0098 14.0293 12.0098H18.0361C18.1507 12.0098 18.2581 11.9954 18.3584 11.9668C18.4587 11.9382 18.5482 11.9202 18.627 11.9131C18.6842 11.9131 18.7666 11.9561 18.874 12.042C18.9814 12.1279 19.0889 12.2282 19.1963 12.3428C19.3037 12.4574 19.3968 12.5719 19.4756 12.6865C19.5544 12.8011 19.5973 12.8906 19.6045 12.9551C19.6045 13.0267 19.583 13.0804 19.54 13.1162C19.4971 13.152 19.4434 13.1878 19.3789 13.2236C19.2786 13.2738 19.182 13.3382 19.0889 13.417C18.9958 13.4958 18.9062 13.571 18.8203 13.6426C18.4479 13.9505 18.0755 14.2477 17.7031 14.5342C17.3307 14.8206 16.9368 15.0999 16.5215 15.3721V15.4902H19.9697C20.2562 15.4902 20.5391 15.4867 20.8184 15.4795C21.0977 15.4723 21.3805 15.4652 21.667 15.458C21.7171 15.458 21.7637 15.4688 21.8066 15.4902Z" fill="black"/>
</g>
<defs>
<clipPath id="clip0_73_472">
<rect width="22" height="22" fill="white"/>
</clipPath>
</defs>
</svg>
