<svg width="17" height="19" viewBox="0 0 17 19" fill="none" xmlns="http://www.w3.org/2000/svg">
<path d="M14.502 19C13.8087 19 13.2183 18.7567 12.731 18.27C12.2437 17.7847 12 17.1947 12 16.5C12 16.3667 12.0117 16.229 12.035 16.087C12.0577 15.9443 12.092 15.8103 12.138 15.685L4.396 11.123C4.15133 11.399 3.86667 11.614 3.542 11.768C3.218 11.9227 2.87067 12 2.5 12C1.80533 12 1.21533 11.7573 0.73 11.272C0.243333 10.786 0 10.196 0 9.502C0 8.80867 0.243333 8.21833 0.73 7.731C1.21467 7.24367 1.80467 7 2.5 7C2.87067 7 3.218 7.07733 3.542 7.232C3.86667 7.386 4.15133 7.601 4.396 7.877L12.138 3.315C12.092 3.18967 12.0577 3.05567 12.035 2.913C12.0117 2.771 12 2.63333 12 2.5C12 1.80533 12.243 1.21533 12.729 0.73C13.2143 0.243333 13.804 0 14.498 0C15.1913 0 15.7817 0.243 16.269 0.729C16.7563 1.21433 17 1.804 17 2.498C17 3.19133 16.7567 3.78167 16.27 4.269C15.7847 4.75633 15.1947 5 14.5 5C14.1293 5 13.782 4.92267 13.458 4.768C13.1333 4.614 12.8487 4.399 12.604 4.123L4.862 8.685C4.908 8.81033 4.94233 8.94367 4.965 9.085C4.98833 9.227 5 9.364 5 9.496C5 9.628 4.98833 9.76633 4.965 9.911C4.94233 10.055 4.908 10.1897 4.862 10.315L12.604 14.877C12.8487 14.601 13.1333 14.386 13.458 14.232C13.782 14.0773 14.1293 14 14.5 14C15.1947 14 15.7847 14.243 16.27 14.729C16.7567 15.2143 17 15.804 17 16.498C17 17.1913 16.7573 17.7817 16.272 18.269C15.786 18.7563 15.196 19 14.502 19ZM14.5 4C14.9113 4 15.2643 3.853 15.559 3.559C15.853 3.26433 16 2.91133 16 2.5C16 2.08867 15.853 1.73567 15.559 1.441C15.2643 1.147 14.9113 1 14.5 1C14.0887 1 13.7357 1.147 13.441 1.441C13.147 1.73567 13 2.08867 13 2.5C13 2.91133 13.147 3.26433 13.441 3.559C13.7357 3.853 14.0887 4 14.5 4ZM2.5 11C2.91133 11 3.26433 10.853 3.559 10.559C3.853 10.2643 4 9.91133 4 9.5C4 9.08867 3.853 8.73567 3.559 8.441C3.26433 8.147 2.91133 8 2.5 8C2.08867 8 1.73567 8.147 1.441 8.441C1.147 8.73567 1 9.08867 1 9.5C1 9.91133 1.147 10.2643 1.441 10.559C1.73567 10.853 2.08867 11 2.5 11ZM14.5 18C14.9113 18 15.2643 17.853 15.559 17.559C15.853 17.2643 16 16.9113 16 16.5C16 16.0887 15.853 15.7357 15.559 15.441C15.2643 15.147 14.9113 15 14.5 15C14.0887 15 13.7357 15.147 13.441 15.441C13.147 15.7357 13 16.0887 13 16.5C13 16.9113 13.147 17.2643 13.441 17.559C13.7357 17.853 14.0887 18 14.5 18Z" fill="black"/>
</svg>
