<svg width="12" height="8" viewBox="0 0 12 8" fill="none" xmlns="http://www.w3.org/2000/svg">
<path d="M10.6658 0.702153L0.665505 0.702154C0.564257 0.702419 0.465013 0.725681 0.378455 0.769437C0.291896 0.813192 0.221302 0.875784 0.174272 0.950476C0.127241 1.02517 0.105553 1.10913 0.111543 1.19333C0.117534 1.27752 0.150977 1.35876 0.20827 1.4283L5.20841 7.44484C5.41564 7.69429 5.91454 7.69429 6.12233 7.44484L11.1225 1.4283C11.1803 1.35891 11.2143 1.27763 11.2206 1.19329C11.2269 1.10895 11.2054 1.02479 11.1583 0.949939C11.1112 0.875089 11.0404 0.812416 10.9536 0.768732C10.8668 0.725047 10.7672 0.70202 10.6658 0.702153Z" fill="#F8F8F8"/>
</svg>
