<svg width="20" height="21" viewBox="0 0 20 21" fill="none" xmlns="http://www.w3.org/2000/svg">
<circle cx="13" cy="13.2979" r="6.5" stroke="black"/>
<path d="M16.5 13.2979C16.5 15.16 16.0676 16.8212 15.3943 17.9995C14.7129 19.192 13.8477 19.7979 13 19.7979C12.1523 19.7979 11.2871 19.192 10.6057 17.9995C9.93236 16.8212 9.5 15.16 9.5 13.2979C9.5 11.4357 9.93236 9.77451 10.6057 8.59617C11.2871 7.40369 12.1523 6.79785 13 6.79785C13.8477 6.79785 14.7129 7.40369 15.3943 8.59617C16.0676 9.77451 16.5 11.4357 16.5 13.2979Z" stroke="black"/>
<path d="M19 13.1094H6" stroke="black"/>
<path d="M0.5 0.5H7.81213L11.5 3.72688V14.5H0.5V0.5Z" fill="#FFFDFD" stroke="black"/>
<path d="M4.21238 11.1846H3.21484L5.45626 4.95605H6.54199L8.7834 11.1846H7.78587L6.02497 6.08741H5.97631L4.21238 11.1846ZM4.37965 8.74547H7.61556V9.5362H4.37965V8.74547Z" fill="black"/>
</svg>
