<svg width="15" height="14" viewBox="0 0 15 14" fill="none" xmlns="http://www.w3.org/2000/svg">
<path d="M13.5867 9.52583C13.4822 10.2631 13.0923 10.9398 12.4898 11.4296C11.8873 11.9194 11.1133 12.1888 10.3125 12.1875C5.66016 12.1875 1.87501 8.67271 1.87501 4.35267C1.87357 3.60907 2.16369 2.8904 2.69118 2.33091C3.21867 1.77141 3.94745 1.40934 4.74141 1.31233C4.94218 1.28956 5.1455 1.3277 5.32101 1.42106C5.49652 1.51441 5.63481 1.65797 5.71524 1.8303L6.95274 4.39566V4.40219C7.01431 4.5341 7.03974 4.67812 7.02676 4.82139C7.01377 4.96466 6.96278 5.10271 6.87833 5.22321C6.86778 5.2379 6.85665 5.2515 6.84493 5.2651L5.62501 6.6079C6.06387 7.436 6.99669 8.29457 7.9002 8.70318L9.32637 7.57638C9.34038 7.56544 9.35505 7.55527 9.37032 7.54591C9.49998 7.4656 9.64916 7.41658 9.80436 7.40328C9.95956 7.38998 10.1159 7.41282 10.2592 7.46974L10.2668 7.473L13.0272 8.62156C13.2131 8.69598 13.368 8.82428 13.4689 8.98728C13.5698 9.15027 13.6111 9.33921 13.5867 9.52583Z" fill="#999999"/>
</svg>
